<svg width="24" height="25" viewBox="0 0 24 25" fill="none" xmlns="http://www.w3.org/2000/svg">
<path d="M2 21.5H22" stroke="#5DAF6E" stroke-width="2" stroke-linecap="round" stroke-linejoin="round"/>
<path d="M7 13.5H5C4.44772 13.5 4 13.9477 4 14.5V20.5C4 21.0523 4.44772 21.5 5 21.5H7C7.55228 21.5 8 21.0523 8 20.5V14.5C8 13.9477 7.55228 13.5 7 13.5Z" stroke="#5DAF6E" stroke-width="2" stroke-linejoin="round"/>
<path d="M19 2.5H9C8.44772 2.5 8 2.94772 8 3.5V20.5C8 21.0523 8.44772 21.5 9 21.5H19C19.5523 21.5 20 21.0523 20 20.5V3.5C20 2.94772 19.5523 2.5 19 2.5Z" stroke="#5DAF6E" stroke-width="2" stroke-linejoin="round"/>
<path d="M13 5.5H15V7.5H13V5.5ZM13 9H15V11H13V9Z" fill="#5DAF6E"/>
</svg>
