<svg width="32" height="32" viewBox="0 0 32 32" fill="none" xmlns="http://www.w3.org/2000/svg">
<path d="M2.6649 30.3343C2.39823 30.3343 2.14486 30.2276 1.95819 30.041C1.70486 29.7876 1.59826 29.4143 1.69159 29.0676L3.3716 22.7876C2.2516 20.7076 1.6649 18.361 1.6649 15.9876C1.6649 8.08096 8.09157 1.6543 15.9982 1.6543C23.9049 1.6543 30.3316 8.08096 30.3316 15.9876C30.3316 23.8943 23.9049 30.321 15.9982 30.321C13.5849 30.321 11.2249 29.721 9.11827 28.5743L2.93158 30.2943C2.83825 30.321 2.75823 30.3343 2.6649 30.3343ZM9.25157 26.5077C9.4249 26.5077 9.59824 26.561 9.75824 26.641C11.6382 27.7477 13.7982 28.3343 15.9982 28.3343C22.7982 28.3343 28.3316 22.801 28.3316 16.001C28.3316 9.20098 22.7982 3.66764 15.9982 3.66764C9.19823 3.66764 3.6649 9.20098 3.6649 16.001C3.6649 18.1743 4.23822 20.2943 5.31822 22.161C5.45155 22.3876 5.49157 22.6676 5.42491 22.921L4.09157 27.9076L8.99823 26.5476C9.07823 26.521 9.17157 26.5077 9.25157 26.5077Z" fill="#424242"/>
<path d="M19.6536 23.681C18.827 23.681 17.9737 23.4943 17.0803 23.1077C16.2403 22.7477 15.4003 22.2677 14.587 21.6677C13.787 21.081 13.0004 20.4144 12.2804 19.6944C11.5604 18.961 10.8936 18.1877 10.307 17.3877C9.70697 16.5477 9.22696 15.721 8.88029 14.9077C8.50696 14.0277 8.32031 13.161 8.32031 12.3344C8.32031 11.7477 8.42695 11.1877 8.62695 10.6677C8.84029 10.121 9.18697 9.62769 9.6403 9.20102C10.4936 8.36102 11.7204 8.05439 12.6937 8.52105C13.027 8.66772 13.307 8.90772 13.5203 9.22772L15.067 11.401C15.227 11.6143 15.347 11.841 15.4403 12.0677C15.547 12.3343 15.6137 12.6011 15.6137 12.8544C15.6137 13.2011 15.5203 13.5477 15.3337 13.8544C15.2137 14.0544 15.0403 14.2944 14.8136 14.5211L14.6403 14.7077C14.7203 14.8144 14.8136 14.9477 14.9603 15.1077C15.2403 15.4277 15.547 15.7743 15.8803 16.1077C16.2136 16.4277 16.547 16.7477 16.8803 17.0277C17.0403 17.161 17.1737 17.2677 17.2804 17.3344L17.467 17.1477C17.707 16.9077 17.947 16.721 18.187 16.601C18.627 16.321 19.307 16.2544 19.907 16.5077C20.1203 16.5877 20.3336 16.7077 20.5603 16.8677L22.787 18.441C23.0937 18.6543 23.3337 18.9477 23.4937 19.281C23.627 19.6144 23.6803 19.9077 23.6803 20.2144C23.6803 20.6144 23.587 21.001 23.4137 21.3744C23.2403 21.721 23.0403 22.0277 22.8003 22.3077C22.3736 22.7744 21.8803 23.121 21.347 23.3477C20.8137 23.5744 20.2403 23.681 19.6536 23.681ZM11.7203 10.321C11.6403 10.321 11.3737 10.321 11.0404 10.6544C10.787 10.8944 10.6137 11.1477 10.4937 11.4277C10.3737 11.7077 10.3203 12.0277 10.3203 12.3477C10.3203 12.9077 10.4536 13.5077 10.7203 14.1477C11.0003 14.8143 11.4137 15.5211 11.9203 16.2277C12.4403 16.9344 13.027 17.641 13.6803 18.2944C14.3337 18.9344 15.027 19.5343 15.747 20.0677C16.4403 20.5744 17.147 20.9744 17.8537 21.281C18.867 21.721 19.8003 21.8277 20.5603 21.5077C20.827 21.401 21.067 21.2144 21.307 20.9744C21.427 20.841 21.5203 20.7077 21.6003 20.5344C21.6403 20.441 21.667 20.3344 21.667 20.241C21.667 20.2144 21.667 20.1744 21.627 20.0944L19.4003 18.5477C19.307 18.481 19.2136 18.4277 19.1336 18.401C19.0803 18.4277 19.0003 18.4677 18.8537 18.6144L18.347 19.121C17.9603 19.5077 17.347 19.6143 16.8537 19.441L16.6137 19.3344C16.307 19.1744 15.9603 18.9344 15.5736 18.601C15.2003 18.281 14.8404 17.9477 14.4537 17.5744C14.0804 17.1877 13.747 16.8277 13.427 16.4544C13.0803 16.041 12.8403 15.7077 12.6803 15.4277L12.5337 15.081C12.4937 14.9477 12.4803 14.801 12.4803 14.6677C12.4803 14.2944 12.6137 13.961 12.867 13.6944L13.3737 13.1744C13.5204 13.0277 13.5737 12.9477 13.6003 12.8944C13.5603 12.8011 13.507 12.721 13.4403 12.6277L11.8803 10.4277L11.7203 10.321Z" fill="#757575"/>
</svg>
