<svg width="23" height="17" viewBox="0 0 23 17" fill="none" xmlns="http://www.w3.org/2000/svg">
<path d="M15.7483 15.7502C15.7483 15.9491 15.6693 16.1399 15.5287 16.2805C15.388 16.4212 15.1973 16.5002 14.9983 16.5002H1.49834C1.29943 16.5002 1.10866 16.4212 0.96801 16.2805C0.827358 16.1399 0.74834 15.9491 0.74834 15.7502C0.74834 15.5513 0.827358 15.3605 0.96801 15.2198C1.10866 15.0792 1.29943 15.0002 1.49834 15.0002H14.9983C15.1973 15.0002 15.388 15.0792 15.5287 15.2198C15.6693 15.3605 15.7483 15.5513 15.7483 15.7502ZM22.4852 4.23299C22.4656 4.33738 22.424 4.4364 22.3632 4.52352C22.3025 4.61063 22.2239 4.68384 22.1327 4.7383L8.31303 12.9883C7.73693 13.326 7.08144 13.5046 6.41365 13.5058C5.46238 13.5047 4.54748 13.1402 3.85615 12.4867L3.8449 12.4755L0.46709 9.16893C0.288374 8.99922 0.154229 8.78808 0.0765176 8.55419C-0.00119374 8.32031 -0.0200771 8.07088 0.0215373 7.82795C0.0631517 7.58503 0.163982 7.35611 0.315111 7.16142C0.46624 6.96674 0.663013 6.81229 0.888027 6.71174L1.16928 6.57393C1.34689 6.48673 1.55177 6.47325 1.73928 6.53643L4.38865 7.4308L6.27959 6.28705L4.23303 4.30049C4.04898 4.13093 3.91028 3.91801 3.82956 3.68113C3.74884 3.44426 3.72867 3.19095 3.77088 2.94428C3.81309 2.69761 3.91635 2.46543 4.07125 2.26887C4.22614 2.07232 4.42775 1.91764 4.65771 1.81893L4.68771 1.80674L5.35803 1.55268C5.52703 1.48966 5.71309 1.48966 5.88209 1.55268L10.939 3.4108L15.7737 0.525179C16.5441 0.0666361 17.4538 -0.0993081 18.3366 0.0576825C19.2193 0.214673 20.016 0.684112 20.5812 1.38018L20.5924 1.39424L22.3399 3.63393C22.4052 3.71779 22.4519 3.81456 22.4769 3.91784C22.502 4.02112 22.5048 4.12854 22.4852 4.23299ZM20.6346 3.88612L19.4158 2.3233C19.0766 1.90833 18.5998 1.62883 18.072 1.53559C17.5442 1.44235 17.0005 1.54155 16.5396 1.81518L11.4021 4.88268C11.3059 4.93973 11.1982 4.97471 11.0868 4.98508C10.9754 4.99546 10.8631 4.98098 10.758 4.94268L5.62334 3.05455L5.24834 3.19799L5.26803 3.21674L8.02053 5.88768C8.10273 5.96755 8.16553 6.06521 8.20411 6.17313C8.24269 6.28106 8.25602 6.3964 8.24307 6.51028C8.23013 6.62417 8.19125 6.73357 8.12943 6.83009C8.06761 6.9266 7.9845 7.00767 7.88646 7.06705L4.86678 8.89424C4.77336 8.95066 4.66876 8.98601 4.56027 8.99784C4.45179 9.00965 4.34202 8.99766 4.23865 8.96268L1.55084 8.05612L1.53303 8.06549L1.49834 8.08143C1.50286 8.08465 1.50696 8.08843 1.51053 8.09268L4.88553 11.3983C5.23775 11.7293 5.68774 11.9372 6.16808 11.991C6.64842 12.0447 7.13324 11.9414 7.5499 11.6964L20.6346 3.88612Z" fill="#424242"/>
</svg>
