<svg width="24" height="24" viewBox="0 0 24 24" fill="none" xmlns="http://www.w3.org/2000/svg">
<path d="M6.5833 14.2812C6.58338 15.5761 6.90872 16.8501 7.52937 17.986C8.15001 19.122 9.04602 20.0833 10.1349 20.7815C11.2238 21.4798 12.4706 21.8925 13.7606 21.9817C15.0505 22.0709 16.3421 21.8338 17.5165 21.2921C18.6909 20.7503 19.7104 19.9215 20.4811 18.8818C21.2518 17.8421 21.7489 16.625 21.9267 15.3424C22.1046 14.0599 21.9574 12.7531 21.4987 11.5425C21.0401 10.3319 20.2847 9.2562 19.3021 8.41455" stroke="#424242" stroke-width="1.2" stroke-linecap="round" stroke-linejoin="round"/>
<path d="M14.6313 11.425C14.7799 11.7332 14.863 12.069 14.8752 12.411C14.8874 12.7531 14.8285 13.0939 14.7022 13.412C14.5248 13.845 14.2222 14.215 13.8332 14.4744C13.4442 14.7338 12.9866 14.8709 12.5192 14.8678C12.2044 14.8678 11.9024 14.9931 11.6798 15.216C11.4572 15.439 11.3321 15.7413 11.3321 16.0566V21.4138M21.8926 15.47H19.0405C18.7236 15.4617 18.4082 15.5171 18.113 15.6329C17.8178 15.7487 17.5487 15.9225 17.3217 16.1441C17.0947 16.3657 16.9142 16.6306 16.7911 16.9232C16.6679 17.2157 16.6045 17.53 16.6046 17.8475V21.63M2.32878 4.19973L3.87045 3.67482C3.97881 3.63796 4.09624 3.63762 4.2048 3.67386C4.31337 3.7101 4.4071 3.78093 4.47171 3.87552L5.59712 5.62009L11.7638 2.53236C12.2512 2.24472 12.796 2.06851 13.3593 2.01634C13.9227 1.96416 14.4905 2.03732 15.0223 2.23057C15.5541 2.42382 16.0367 2.73239 16.4355 3.1342C16.8343 3.536 17.1395 4.02112 17.3292 4.55482C17.3815 4.69328 17.404 4.84124 17.3952 4.98901C17.3863 5.13677 17.3464 5.281 17.278 5.41221C17.2095 5.54343 17.1142 5.65867 16.9981 5.75037C16.8821 5.84207 16.748 5.90816 16.6046 5.9443L12.5809 7.24115L12.1801 7.3801L11.4246 9.97379C11.4004 10.0641 11.3537 10.1468 11.2891 10.2143C11.2244 10.2818 11.1438 10.3318 11.0546 10.3598L9.23547 10.9464C9.14259 10.9767 9.04351 10.9826 8.9477 10.9636C8.85189 10.9445 8.76257 10.9012 8.6883 10.8376C8.61403 10.7741 8.5573 10.6925 8.52353 10.6008C8.48977 10.509 8.4801 10.41 8.49546 10.3134L8.8963 8.38361H8.63421L4.70296 9.66502C4.44532 9.75396 4.16303 9.73733 3.91758 9.61877C3.67213 9.50021 3.48341 9.28931 3.39254 9.03203L2.00503 4.75553C1.98976 4.64004 2.01329 4.52275 2.0719 4.42213C2.13051 4.32151 2.22089 4.24327 2.32878 4.19973Z" stroke="#424242" stroke-width="1.2" stroke-linecap="round" stroke-linejoin="round"/>
</svg>
