<svg width="20" height="20" viewBox="0 0 20 20" fill="none" xmlns="http://www.w3.org/2000/svg">
<path d="M12.5 15.625H7.5C5.48333 15.625 4.375 14.5167 4.375 12.5V7.5C4.375 5.48333 5.48333 4.375 7.5 4.375H10.8333C12.85 4.375 13.9583 5.48333 13.9583 7.5V8.33333C13.9583 8.45 14.05 8.54167 14.1667 8.54167C14.9667 8.54167 15.625 9.2 15.625 10V12.5C15.625 14.5167 14.5167 15.625 12.5 15.625ZM7.5 5.625C6.18333 5.625 5.625 6.18333 5.625 7.5V12.5C5.625 13.8167 6.18333 14.375 7.5 14.375H12.5C13.8167 14.375 14.375 13.8167 14.375 12.5V10C14.375 9.88333 14.2833 9.79167 14.1667 9.79167C13.3667 9.79167 12.7083 9.13333 12.7083 8.33333V7.5C12.7083 6.18333 12.15 5.625 10.8333 5.625H7.5Z" fill="#424242"/>
<path d="M10.0007 8.9585H8.33398C7.99232 8.9585 7.70898 8.67516 7.70898 8.3335C7.70898 7.99183 7.99232 7.7085 8.33398 7.7085H10.0007C10.3423 7.7085 10.6257 7.99183 10.6257 8.3335C10.6257 8.67516 10.3423 8.9585 10.0007 8.9585Z" fill="#424242"/>
<path d="M11.6673 12.2915H8.33398C7.99232 12.2915 7.70898 12.0082 7.70898 11.6665C7.70898 11.3248 7.99232 11.0415 8.33398 11.0415H11.6673C12.009 11.0415 12.2923 11.3248 12.2923 11.6665C12.2923 12.0082 12.009 12.2915 11.6673 12.2915Z" fill="#424242"/>
<path d="M12.4993 18.9582H7.49935C2.97435 18.9582 1.04102 17.0248 1.04102 12.4998V7.49984C1.04102 2.97484 2.97435 1.0415 7.49935 1.0415H12.4993C17.0243 1.0415 18.9577 2.97484 18.9577 7.49984V12.4998C18.9577 17.0248 17.0243 18.9582 12.4993 18.9582ZM7.49935 2.2915C3.65768 2.2915 2.29102 3.65817 2.29102 7.49984V12.4998C2.29102 16.3415 3.65768 17.7082 7.49935 17.7082H12.4993C16.341 17.7082 17.7077 16.3415 17.7077 12.4998V7.49984C17.7077 3.65817 16.341 2.2915 12.4993 2.2915H7.49935Z" fill="#424242"/>
</svg>
